<svg version="1.0" xmlns="http://www.w3.org/2000/svg"
 width="800.000000pt" height="1280.000000pt" viewBox="0 0 800.000000 1280.000000"
 fill="#EBFEF6"
 preserveAspectRatio="xMidYMid meet">
<metadata>
Created by potrace 1.15, written by Peter Selinger 2001-2017
</metadata>
<g transform="translate(0.000000,1280.000000) scale(0.100000,-0.100000)"
fill="#EBFEF6" stroke="none">
<path d="M2655 12336 c-82 -26 -132 -61 -225 -155 -137 -138 -245 -330 -330
-582 -53 -160 -71 -253 -81 -434 -19 -351 -58 -600 -140 -901 l-31 -112 -66
-7 c-98 -10 -199 -32 -246 -54 -40 -19 -81 -24 -301 -37 -264 -16 -449 -145
-593 -414 -37 -67 -92 -217 -121 -326 -16 -58 -50 -105 -190 -256 -203 -220
-270 -341 -258 -471 6 -67 47 -159 99 -221 20 -25 31 -48 30 -62 -5 -35 21
-76 84 -133 43 -39 54 -55 45 -64 -23 -23 -9 -47 57 -102 106 -89 214 -135
319 -135 l36 0 -6 -59 c-4 -33 -25 -173 -47 -313 -83 -526 -106 -775 -97
-1068 10 -333 45 -492 158 -718 86 -171 211 -383 272 -461 43 -55 44 -57 50
-152 32 -493 211 -998 443 -1249 l55 -59 -57 -158 c-181 -507 -295 -882 -349
-1154 -53 -269 -128 -409 -238 -445 -140 -46 -271 -133 -307 -205 -29 -55 -25
-86 12 -123 78 -78 273 -115 684 -132 l160 -6 76 75 c119 120 178 221 178 308
0 27 10 54 32 87 l32 48 60 -14 c96 -22 229 -13 299 21 254 125 965 1280 1096
1781 12 44 22 81 24 83 2 1 9 -34 16 -80 40 -263 127 -652 202 -903 87 -289
203 -561 314 -731 72 -110 90 -174 90 -323 0 -97 -3 -120 -20 -149 -36 -62
-66 -76 -158 -76 -69 1 -118 11 -307 63 -282 78 -416 108 -544 123 -311 36
-463 -61 -460 -296 1 -89 31 -161 89 -214 74 -69 145 -97 356 -141 161 -35
244 -43 699 -70 971 -57 1333 -98 1571 -176 191 -64 279 -52 315 41 26 70 -1
184 -66 276 -12 16 -20 37 -18 46 7 34 48 41 483 78 202 17 316 36 421 69 l77
25 103 -69 c278 -186 444 -213 672 -109 243 110 383 319 370 553 l-5 79 63 95
c163 242 280 570 330 922 32 231 29 1047 -6 1403 -92 923 -390 1629 -974 2297
-127 145 -499 518 -631 631 -310 267 -589 460 -862 596 -201 101 -329 150
-518 198 -184 47 -293 60 -500 59 -205 -1 -310 -16 -512 -70 l-133 -36 -182
40 c-337 74 -624 125 -781 138 -48 4 -87 8 -87 10 0 2 9 36 20 76 38 138 76
449 101 813 l12 170 45 39 c55 49 105 148 129 258 17 73 20 79 41 73 38 -9
153 15 219 46 150 71 317 242 538 549 110 153 166 298 196 510 18 125 16 448
-5 620 -17 147 -58 375 -68 386 -14 13 -123 35 -219 43 -164 14 -353 -11 -489
-63 -13 -5 -15 15 -15 151 0 129 -3 168 -19 212 -22 63 -82 134 -139 163 -87
44 -284 62 -372 34z"/>
</g>
</svg>
